<?xml version="1.0" encoding="utf-8"?>
<!-- Generator: Adobe Illustrator 17.1.0, SVG Export Plug-In . SVG Version: 6.00 Build 0)  -->
<!DOCTYPE svg PUBLIC "-//W3C//DTD SVG 1.1//EN" "http://www.w3.org/Graphics/SVG/1.1/DTD/svg11.dtd">
<svg version="1.1" id="Layer_1" xmlns="http://www.w3.org/2000/svg" xmlns:xlink="http://www.w3.org/1999/xlink" x="0px" y="0px"
	 viewBox="0 0 44 44" enable-background="new 0 0 44 44" xml:space="preserve">
<g>
	<path fill="#231F20" d="M18.4,21.2c0.7,1.5,1.5,3,2.5,4.3c0.2,0.4,0.6,0.7,1,0.9c0.4,0.2,1,0,1.1-0.5s0.1-1-0.2-1.4
		c-0.6-0.9-1.2-1.7-1.7-2.6c-1.1-1.8-1.8-3.7-2.2-5.8c-0.1-0.3-0.1-0.6,0-0.9C19,15.1,19,15,19,14.7c0.1,0,0.2,0.1,0.2,0.2
		c0.1,0.2,0.2,0.3,0.2,0.5c0.4,2.1,1.1,4,2.1,5.8c0.2,0.3,0.3,0.5,0.5,0.8l0.1-0.1c1-1.3,1.7-2.7,2.1-4.3c0.2-0.8,0.3-1.6,0.5-2.4
		c0.1-0.2,0.1-0.5,0.4-0.4c0.3,0.1,0.2,0.4,0.2,0.6c0,0.3,0,0.6-0.1,0.9c-0.3,1-0.4,2-0.8,3c-0.4,1.2-1,2.3-1.7,3.4
		c-0.1,0.1-0.1,0.2,0,0.3c0.5,0.6,0.9,1.2,1.2,1.8c0.1,0,0.1-0.1,0.1-0.1c0.3-0.7,0.7-1.3,1-1.9c0.6-1.2,1.2-2.4,1.6-3.7
		c0.6-1.9,0.9-3.9,0.8-5.9c0-0.3-0.1-0.6-0.4-0.8c-0.3-0.3-0.7-0.5-1.1-0.6c-2-0.6-4-0.7-6-0.3C19,11.7,18,12,17.3,12.6
		c-0.4,0.3-0.6,0.6-0.6,1c0,0.9,0,1.8,0.2,2.6C17.2,17.9,17.6,19.6,18.4,21.2z"/>
	<path fill="#231F20" d="M27.8,26.4c-0.1-1-0.3-2.1-0.7-3c-0.2-0.5-0.5-1.1-0.8-1.6c-0.2,0.6-0.4,1.2-0.7,1.7c-0.5,1-1.1,2-2,2.7
		c-1.1,0.8-2,0.9-2.9,0.1c0-0.1-0.1-0.1-0.2-0.2c-0.8-0.8-1.4-1.7-1.9-2.6c-0.3-0.5-0.6-1.1-0.9-1.7c0,0.1,0,0.1,0,0.1
		c-0.5,0.9-0.9,1.9-1.2,2.9s-0.4,1.9-0.5,2.9c0,0.2,0.1,0.3,0.2,0.3c0.9,0.3,1.8,0.6,2.5,0.8c0.1,0,0.2,0,0.2,0.2
		c0.1,1,0.4,1.9,0.7,2.8c0.1,0.3,0.2,0.5,0.3,0.7c0.4-1,0.8-2,1-3C21,29,21,29,21.5,29c0.3,0.1,0.2,0.1,0.2,0.3
		c-0.2,0.6-0.3,1.3-0.5,1.9c-0.5,1.8-1.2,3.5-2.3,5c-0.6,0.9-0.3,1.7,0.4,2.2c0.6,0.4,1.2,0.3,1.6-0.3c0.3-0.4,0.5-0.8,0.8-1.2
		c0.6-1,1.2-2,1.7-3.1c0.6-1.4,1-2.8,1.2-4.2c0.1-0.6,0.4-0.9,1-1c0.7-0.1,1.4-0.3,2.1-0.5c0.2-0.1,0.2-0.1,0.2-0.3
		C27.9,27.3,27.8,26.9,27.8,26.4z"/>
	<path fill="#231F20" d="M22.2,10.7c1.5,0,2.7-1.2,2.7-2.7c0-1.4-1.2-2.6-2.7-2.6S19.5,6.6,19.5,8C19.5,9.5,20.7,10.7,22.2,10.7z"/>
	<path fill="#231F20" d="M23.9,34.7c-0.4,0.9-0.8,1.7-1.2,2.6c0,0.1,0,0.1,0,0.2c0.1,0.4,0.7,0.9,1.1,1c0.7,0.1,1.2-0.2,1.5-0.9
		c0.2-0.3,0.2-0.7,0-1C24.8,36,24.4,35.4,23.9,34.7z"/>
</g>
</svg>
