<?xml version="1.0" encoding="utf-8"?>
<!-- Generator: Adobe Illustrator 17.1.0, SVG Export Plug-In . SVG Version: 6.00 Build 0)  -->
<!DOCTYPE svg PUBLIC "-//W3C//DTD SVG 1.1//EN" "http://www.w3.org/Graphics/SVG/1.1/DTD/svg11.dtd">
<svg version="1.1" id="Layer_1" xmlns="http://www.w3.org/2000/svg" xmlns:xlink="http://www.w3.org/1999/xlink" x="0px" y="0px"
	 viewBox="0 0 44 44" enable-background="new 0 0 44 44" xml:space="preserve">
<g>
	<path fill="#231F20" d="M20.6,10.3c0.4,0.3,1,0.5,1.5,0.5c1.4-0.1,2.6-1.3,2.6-2.7c0-0.7-0.3-1.4-0.8-1.9c-0.1-0.1-0.3-0.2-0.4-0.3
		C23,5.6,22.5,5.4,22,5.4c-1.4,0-2.7,1.3-2.7,2.7C19.3,9,19.9,9.9,20.6,10.3z"/>
	<path fill="#231F20" d="M29.5,22c0-0.2,0-0.4-0.1-0.6c-0.1-0.3-0.2-0.5-0.2-0.8c-0.3-1-0.5-2-0.8-3c-0.1-0.3-0.2-0.6-0.2-0.9
		c-0.3-0.9-0.5-1.9-0.8-2.8c-0.4-1.4-1.7-2.4-3.2-2.4c-1.4,0-2.9,0.1-4.3,0c-0.8,0-1.6,0.3-2.3,0.8c-0.1,0.1-0.1,0.1-0.2,0.2
		c-0.1,0.1-0.2,0.1-0.2,0.2c-0.1,0.1-0.1,0.2-0.2,0.3c-0.1,0.1-0.1,0.1-0.2,0.2c0,0.1-0.1,0.1-0.1,0.2c-0.2,0.3-0.3,0.5-0.4,0.8
		c-0.3,1.3-0.7,2.5-1,3.8s-0.7,2.6-1,3.9c-0.1,0.2-0.1,0.4,0,0.5c0,0.5,0.4,0.8,0.8,1c0.6,0.2,1.2-0.2,1.4-0.8
		c0.2-0.6,0.4-1.3,0.5-1.9c0.1-0.6,0.3-1.2,0.5-1.8c0.3-1.1,0.6-2.2,0.9-3.2c0,0,0,0,0-0.1c0.1,0,0.1-0.1,0.2-0.1
		c0,0.1,0.1,0.3,0.1,0.4c-0.2,0.7-0.4,1.4-0.6,2.1c-0.7,2.6-1.4,5.1-2.1,7.7c0,0.2-0.1,0.5-0.1,0.8c-0.1,0.5-0.2,0.9-0.4,1.4
		c1,0,2,0,2.9,0c0.6,0,0.6,0,0.6,0.6c0,2.9,0,5.7,0,8.6c0,0,0,0.1,0,0.1c0,0.5,0.1,0.9,0.6,1.2c0.5,0.3,1,0.3,1.4,0.1
		c0.5-0.3,0.7-0.7,0.7-1.3c0,0,0-0.1,0-0.1c0-1.3,0-2.6,0-3.9c0,0,0-0.1,0-0.1c0-1.6,0-3,0-4.6c0-0.2,0.1-0.5,0.2-0.5
		c0.1,0,0.2,0.1,0.2,0.2c0,0.1,0,0.2,0,0.2c0,0,0,0.1,0,0.1c0,2.8,0,5.5,0,8.4c0,0,0,0.1,0,0.1c0,0.4,0.1,0.8,0.3,1.1
		c0.3,0.5,1,0.6,1.5,0.5c0.5-0.2,0.9-0.7,0.9-1.3c0,0,0-0.1,0-0.1c0-2.9,0-5.8,0-8.7c0-0.4,0.1-0.5,0.5-0.5c0.9,0,1.7,0,2.6,0
		c0.2,0,0.4-0.1,0.3-0.3c0-0.1,0-0.1,0-0.2c-0.3-1-0.5-2-0.8-3c-0.5-1.8-1-3.6-1.5-5.4C25.6,18,25.3,17,25,15.9
		c0-0.1,0.1-0.3,0.1-0.3c0.1,0.1,0.3,0.2,0.3,0.3c0.3,0.9,0.5,1.9,0.8,2.8c0.4,1.3,0.7,2.6,1.1,4c0.2,0.6,0.8,0.9,1.4,0.7
		C29.2,23.3,29.6,22.7,29.5,22C29.5,22.1,29.5,22.1,29.5,22C29.5,22.1,29.5,22,29.5,22z"/>
</g>
</svg>
