<?xml version="1.0" encoding="utf-8"?>
<!-- Generator: Adobe Illustrator 17.1.0, SVG Export Plug-In . SVG Version: 6.00 Build 0)  -->
<!DOCTYPE svg PUBLIC "-//W3C//DTD SVG 1.1//EN" "http://www.w3.org/Graphics/SVG/1.1/DTD/svg11.dtd">
<svg version="1.1" id="Layer_1" xmlns="http://www.w3.org/2000/svg" xmlns:xlink="http://www.w3.org/1999/xlink" x="0px" y="0px"
	 viewBox="0 0 44 44" enable-background="new 0 0 44 44" xml:space="preserve">
<g>
	<path fill="#231F20" d="M22,10.8c1.6,0,2.8-1.2,2.9-2.8c0-1.2-0.7-2.1-1.7-2.6c-0.1,0-0.2-0.1-0.3-0.1c-0.1,0-0.1,0-0.2-0.1
		c-0.1,0-0.2,0-0.3-0.1c-0.1,0-0.1,0-0.2,0c0,0,0,0-0.1,0c0,0,0,0,0,0c-1.5,0-2.8,1.2-2.8,2.8c0,0.6,0.2,1.1,0.4,1.6
		C20.2,10.3,21,10.8,22,10.8z"/>
	<path fill="#231F20" d="M28.5,14.7c-0.1-1.7-1.3-2.9-2.9-3.2c0,0-0.1,0-0.1,0c-0.1,0-0.3,0-0.4-0.1c-0.1,0-0.1,0-0.2,0
		c-1.9,0-4,0-5.9,0c-0.1,0-0.1,0-0.2,0c-1.9,0-3.4,1.4-3.4,3.3c0,2.9,0,5.7,0,8.6c0,0.8,0.4,1.4,1.2,1.4c0,0,0.1,0,0.1,0
		c0,0,0,0,0.1,0c0.9,0,1.3-0.5,1.3-1.4c0-2.1,0-4.2,0-6.3c-0.2-0.4-0.1-0.8-0.1-1.2c0,0,0.1,0,0.2,0c0.1,0.6,0.1,1.1,0.1,1.7
		c0,6.3-0.1,12.7,0,19c0,0.6,0.3,1.5,0.8,1.9c0.4,0.4,0.8,0.4,1.2,0.3c0.7-0.1,1.4-0.9,1.4-1.9c0-3.6,0-7.2,0-10.9
		c0-0.4,0.1-0.8,0.1-1.2c0.1,0,0.1,0,0.2,0c0,0.4,0.1,0.8,0.1,1.2c0,2.9,0,5.7,0,8.6c0,0.9,0,1.8,0.1,2.7c0.1,0.9,0.8,1.4,1.7,1.4
		c0,0,0.1,0,0.1,0c0,0,0.1,0,0.1,0c0.9,0,1.4-0.5,1.5-1.4c0.1-0.3,0-0.7,0-1.1c0-6.4,0-12.8,0-19.2c0-0.4,0.1-0.8,0.1-1.2
		c0,0,0.1,0,0.2,0c0,0.5,0,0.9,0,1.3c0,2.1,0,4.2,0,6.3c0,0.8,0.4,1.4,1.2,1.4c0,0,0.1,0,0.1,0c0,0,0,0,0.1,0c0.8,0,1.2-0.5,1.2-1.3
		C28.5,20.5,28.6,17.6,28.5,14.7z"/>
</g>
</svg>
