<?xml version="1.0" encoding="utf-8"?>
<!-- Generator: Adobe Illustrator 17.1.0, SVG Export Plug-In . SVG Version: 6.00 Build 0)  -->
<!DOCTYPE svg PUBLIC "-//W3C//DTD SVG 1.1//EN" "http://www.w3.org/Graphics/SVG/1.1/DTD/svg11.dtd">
<svg version="1.1" id="Layer_1" xmlns="http://www.w3.org/2000/svg" xmlns:xlink="http://www.w3.org/1999/xlink" x="0px" y="0px"
	 viewBox="0 0 44 44" enable-background="new 0 0 44 44" xml:space="preserve">
<g>
	<path fill="#231F20" d="M27.5,12.5c-0.4-0.2-0.7-0.4-1.1-0.5c-1.4-0.5-3-0.6-4.5-0.6c-1.1,0-2.3,0.1-3.4,0.4
		c-0.9,0.2-1.8,0.5-2.6,1c-0.2,0.1-0.4,0.2-0.5,0.5c-0.1,0.4,0,0.9,0,1.4c0.1,1,0.3,2,0.6,2.9c0.4,1,0.7,2,1.2,3
		c0.8,1.5,1.7,2.9,2.7,4.2c0.4,0.6,0.9,1.1,1.6,1.4c0.5,0.3,1.4,0,1.5-0.7c0.1-0.5,0-0.9-0.3-1.2c-0.8-0.9-1.6-1.9-2.3-2.9
		c-1.1-1.5-1.9-3.2-2.3-5c-0.1-0.4-0.1-0.7,0-1.1c0-0.1,0.1-0.2,0.2-0.2c0.2,0,0.2,0.1,0.3,0.2c0.1,0.1,0.2,0.3,0.2,0.4
		c0.2,0.7,0.4,1.4,0.6,2c0.5,1.5,1.4,2.9,2.3,4.3c0.2,0.2,0.2,0.2,0.4,0c1.5-1.6,2.4-3.5,2.8-5.7c0.1-0.4,0.1-0.8,0.3-1.1
		c0.1-0.1,0.2-0.2,0.4-0.2c0.1,0,0.2,0.1,0.2,0.3c0,0.1,0,0.1,0,0.2c0,0.5-0.2,1-0.3,1.5c-0.3,0.9-0.5,1.8-0.9,2.6
		c-0.5,1.1-1.2,2-1.9,3c-0.1,0.1-0.1,0.2,0,0.3c0.6,0.5,1.1,1.1,1.5,1.8c0.7-1.1,1.4-2.3,2.1-3.4c1.4-2.4,1.9-5,1.9-7.7
		C28.2,13.1,28,12.8,27.5,12.5z"/>
	<path fill="#231F20" d="M25.2,27.8c0.1-1.1,0.2-2.1,0.2-3.2c0.1-0.1,0.1-0.2,0-0.3c-0.6,0.7-1.1,1.4-1.8,2.1
		c-0.3,0.3-0.7,0.5-1.1,0.7c-0.1,0-0.2,0.1-0.2,0.2c-0.1,0.5-0.2,1.1-0.3,1.6c-0.3,1.4-0.7,2.9-1.4,4.2c-0.6,1-1.2,2.1-1.9,3.1
		c-0.4,0.6-0.3,1.1,0.1,1.6c0.2,0.2,0.5,0.5,0.9,0.6c0.5,0.2,1,0.1,1.3-0.3c1.4-1.7,2.5-3.7,3.2-5.8C24.7,30.8,25,29.3,25.2,27.8z"
		/>
	<path fill="#231F20" d="M22.1,10.7c1.4,0.1,2.7-1.1,2.6-2.6c0-1.5-1.1-2.6-2.6-2.6s-2.6,1.3-2.6,2.6C19.5,9.5,20.7,10.8,22.1,10.7z
		"/>
	<path fill="#231F20" d="M19.9,32.6c0.2-0.5,0.4-1,0.5-1.4c0.6-1.2,0.9-2.5,1.1-3.9c0.1-0.1,0-0.2-0.1-0.3c-0.8-0.5-1.6-1.2-2.2-2
		c-0.2-0.2-0.3-0.5-0.5-0.7c0,0.7,0.1,1.4,0.1,2c0,1,0,2,0.2,3C19.2,30.4,19.5,31.5,19.9,32.6z"/>
	<path fill="#231F20" d="M24.3,34.6c-0.1,0.1-0.1,0.2-0.2,0.1c-0.3,0.8-0.7,1.5-1.2,2.2c-0.4,0.6-0.4,0.6,0.1,1.1
		c0.1,0.1,0.1,0.1,0.2,0.2c0.2,0.3,0.6,0.4,0.9,0.3c0.7-0.2,1.2-0.5,1.5-1.1c0.1-0.2,0.1-0.5,0-0.7C25.2,36,24.8,35.3,24.3,34.6z"/>
</g>
</svg>
